<svg width="60" height="60" viewBox="0 0 60 60" fill="none" xmlns="http://www.w3.org/2000/svg">
<path fill-rule="evenodd" clip-rule="evenodd" d="M25.4122 3.81194C26.4029 -1.27062 33.5974 -1.27067 34.588 3.81194C35.2864 7.39688 39.5774 8.85609 42.2731 6.42257L42.972 5.79215C46.6732 2.45174 52.203 6.76643 49.9601 11.2411C48.3387 14.4763 50.9455 18.2335 54.5054 17.7877L55.069 17.7174C59.9319 17.1086 61.9639 23.802 57.6007 26.0565C54.4179 27.7009 54.4179 32.2998 57.6007 33.9441C61.9638 36.1987 59.9318 42.8911 55.069 42.2823L54.5054 42.2119C50.9454 41.7661 48.3384 45.5243 49.9601 48.7595C52.2031 53.2343 46.6732 57.5484 42.972 54.2075L42.2731 53.5771C39.5775 51.1439 35.2866 52.6031 34.588 56.1877C33.5976 61.2708 26.4026 61.2708 25.4122 56.1877C24.7136 52.6031 20.4227 51.1441 17.7271 53.5771L17.0282 54.2075C13.327 57.5485 7.79702 53.2344 10.0401 48.7595C11.6617 45.5244 9.05466 41.7663 5.49475 42.2119L4.93118 42.2823C0.0681665 42.8913 -1.96379 36.1987 2.39944 33.9441C5.58212 32.2997 5.58215 27.7009 2.39944 26.0565C-1.96406 23.8021 0.0680924 17.1084 4.93118 17.7174L5.49475 17.7877C9.05459 18.2334 11.6615 14.4762 10.0401 11.2411C7.79694 6.76633 13.327 2.45148 17.0282 5.79215L17.7271 6.42257C20.4227 8.85599 24.7137 7.39685 25.4122 3.81194ZM9.65534 30.881C9.18718 30.881 8.80756 31.2419 8.80756 31.6873C8.80767 32.1326 9.18724 32.4937 9.65534 32.4937C10.1233 32.4935 10.503 32.1326 10.5031 31.6873C10.5031 31.242 10.1234 30.8811 9.65534 30.881ZM49.7793 30.881C49.3112 30.881 48.9316 31.2419 48.9316 31.6873C48.9317 32.1326 49.3113 32.4936 49.7793 32.4937C50.2474 32.4936 50.627 32.1326 50.6271 31.6873C50.6271 31.242 50.2474 30.881 49.7793 30.881ZM9.65534 25.9676C9.18724 25.9676 8.80766 26.3286 8.80756 26.7739C8.80756 27.2194 9.18718 27.5803 9.65534 27.5803C10.1234 27.5802 10.5031 27.2193 10.5031 26.7739C10.503 26.3287 10.1233 25.9677 9.65534 25.9676ZM49.7793 25.9676C49.3113 25.9676 48.9317 26.3286 48.9316 26.7739C48.9316 27.2193 49.3112 27.5803 49.7793 27.5803C50.2474 27.5802 50.6271 27.2193 50.6271 26.7739C50.627 26.3287 50.2473 25.9677 49.7793 25.9676Z" fill="#163300"/>
<path d="M18.4714 30.6599C17.8534 30.6393 17.316 30.4614 16.8592 30.1264C16.4024 29.7872 16.0607 29.3364 15.8343 28.7739C15.6116 28.2114 15.5156 27.5827 15.5464 26.8878C15.5694 26.3294 15.6577 25.7814 15.8112 25.2437C15.9686 24.706 16.1893 24.2056 16.4734 23.7423C16.7613 23.2749 17.0953 22.8675 17.4753 22.5201C17.8591 22.1685 18.3044 21.8976 18.8111 21.7074C19.3217 21.5171 19.861 21.4323 20.4291 21.453C20.7976 21.4695 21.0817 21.515 21.2813 21.5895C21.4809 21.6639 21.692 21.788 21.9147 21.9617C21.9684 22.0031 22.0298 22.061 22.0989 22.1354C22.1719 22.2099 22.2314 22.2637 22.2774 22.2968C22.3273 22.3298 22.3811 22.3485 22.4387 22.3526C22.5039 22.3567 22.5596 22.336 22.6056 22.2906C22.6517 22.2409 22.6901 22.183 22.7208 22.1168C22.7515 22.0465 22.7861 21.9762 22.8244 21.9059C22.8628 21.8356 22.9204 21.7777 22.9972 21.7322C23.0778 21.6867 23.1738 21.6681 23.2851 21.6763C23.3503 21.6805 23.4079 21.6908 23.4578 21.7074C23.5077 21.7198 23.5499 21.7342 23.5845 21.7508C23.6229 21.7673 23.6574 21.7984 23.6881 21.8439C23.7227 21.8894 23.7496 21.9286 23.7688 21.9617C23.7879 21.9948 23.811 22.0548 23.8378 22.1417C23.8647 22.2244 23.8839 22.2926 23.8954 22.3464C23.9108 22.396 23.9338 22.4849 23.9645 22.6132C23.9991 22.7372 24.0279 22.8407 24.0509 22.9234C24.1392 23.2543 24.1872 23.5438 24.1948 23.792C24.2025 24.036 24.168 24.2407 24.0912 24.4062C24.0144 24.5716 23.905 24.704 23.763 24.8032C23.6248 24.9025 23.4463 24.979 23.2275 25.0328C23.097 25.0659 22.978 25.0845 22.8705 25.0886C22.7669 25.0928 22.6671 25.0824 22.5711 25.0576C22.479 25.0328 22.3926 24.9976 22.312 24.9521C22.2352 24.9066 22.1565 24.8446 22.0759 24.766C21.9953 24.6833 21.9185 24.5964 21.8456 24.5054C21.7765 24.4144 21.6978 24.3028 21.6095 24.1704C21.3331 23.7485 20.9723 23.5272 20.527 23.5066C20.1355 23.4859 19.7727 23.6182 19.4388 23.9036C19.1048 24.1849 18.838 24.5654 18.6384 25.0452C18.4426 25.525 18.3332 26.0461 18.3102 26.6086C18.2872 27.1174 18.3754 27.5248 18.5751 27.8308C18.7747 28.1369 19.0837 28.2982 19.5021 28.3148C20.1201 28.3313 20.4886 28.139 20.6076 27.7378C20.6498 27.5972 20.6556 27.502 20.6249 27.4524C20.598 27.3986 20.5328 27.3676 20.4291 27.3593C20.1988 27.3428 20.0529 27.3056 19.9915 27.2477C19.9301 27.1898 19.9032 27.0863 19.9109 26.9374C19.9455 26.1309 20.456 25.7463 21.4425 25.7835C21.7573 25.7959 22.122 25.8042 22.5365 25.8083C22.955 25.8083 23.2429 25.8124 23.4002 25.8207C23.5346 25.8248 23.6402 25.8455 23.7169 25.8827C23.7975 25.92 23.8532 25.9655 23.8839 26.0192C23.9185 26.0689 23.93 26.1454 23.9185 26.2488C23.9069 26.3481 23.8878 26.4453 23.8609 26.5404C23.834 26.6314 23.7918 26.7555 23.7342 26.9126C23.6958 27.016 23.6594 27.105 23.6248 27.1794C23.5903 27.2539 23.5615 27.3138 23.5384 27.3593C23.5154 27.4048 23.4828 27.4503 23.4405 27.4958C23.3983 27.5372 23.3676 27.5661 23.3484 27.5827C23.3292 27.5992 23.2928 27.6282 23.239 27.6695C23.1853 27.7109 23.145 27.7419 23.1181 27.7626C23.0068 27.8412 22.9262 27.9405 22.8763 28.0604C22.8264 28.1803 22.7861 28.3437 22.7553 28.5505C22.7131 28.8028 22.6613 29.1854 22.5999 29.6983C22.55 30.0705 22.4483 30.3311 22.2947 30.48C22.145 30.6289 21.8859 30.6889 21.5174 30.6599C21.1988 30.6351 21.0529 30.4717 21.0798 30.1698C21.0836 30.0954 21.0894 30.0126 21.097 29.9216C21.1086 29.8306 21.1162 29.7624 21.1201 29.7169C21.1239 29.6673 21.1239 29.6176 21.1201 29.568C21.1201 29.5184 21.1105 29.4853 21.0913 29.4687C21.0759 29.4481 21.0529 29.4356 21.0222 29.4315C20.9646 29.4274 20.909 29.4501 20.8552 29.4998C20.8015 29.5494 20.6921 29.6838 20.527 29.903C20.3044 30.2091 20.028 30.418 19.6979 30.5296C19.3677 30.6372 18.9589 30.6806 18.4714 30.6599Z" fill="#9FE870"/>
<path d="M25.2605 30.6227C25.0225 30.6227 24.821 30.6206 24.6559 30.6165C24.4947 30.6124 24.3316 30.6041 24.1665 30.5917C24.0053 30.5793 23.8729 30.5627 23.7692 30.5421C23.6694 30.5172 23.5734 30.4862 23.4813 30.449C23.3892 30.4076 23.3201 30.3601 23.274 30.3063C23.228 30.2525 23.1915 30.1884 23.1646 30.114C23.1339 30.0354 23.1205 29.9465 23.1243 29.8472C23.1243 29.7479 23.1358 29.6342 23.1589 29.506C23.1973 29.2909 23.2663 29.1068 23.3662 28.9538C23.466 28.8008 23.6253 28.6705 23.8441 28.5629C24.059 28.4554 24.2299 28.3127 24.3565 28.1348C24.4832 27.957 24.606 27.6385 24.725 27.1794C24.9937 26.1537 25.1646 25.3451 25.2375 24.7536C25.2836 24.4062 25.2855 24.1601 25.2433 24.0153C25.2049 23.8664 25.107 23.7361 24.9496 23.6244C24.7769 23.5086 24.6598 23.3866 24.5984 23.2584C24.5369 23.1302 24.5216 22.9254 24.5523 22.6442C24.583 22.3629 24.6713 22.1499 24.8172 22.0052C24.963 21.8563 25.201 21.7487 25.5312 21.6825C25.8613 21.6164 26.3315 21.5853 26.9419 21.5895C27.7518 21.5978 28.3007 21.6722 28.5886 21.8128C28.8765 21.9493 28.9802 22.2264 28.8996 22.6442C28.8497 22.942 28.7767 23.1674 28.6808 23.3204C28.5886 23.4693 28.4178 23.6079 28.1683 23.7361C27.9572 23.8561 27.796 23.9781 27.6846 24.1022C27.5772 24.2262 27.487 24.4186 27.414 24.6791C27.1108 25.829 26.8958 26.8278 26.7691 27.6757C26.7307 27.9735 26.7346 28.1886 26.7806 28.321C26.8267 28.4533 26.9284 28.5733 27.0858 28.6808C27.4006 28.9042 27.5349 29.1958 27.4889 29.5556C27.4697 29.7169 27.4409 29.8534 27.4025 29.9651C27.3641 30.0726 27.3046 30.1677 27.224 30.2505C27.1434 30.3332 27.0532 30.3973 26.9534 30.4428C26.8536 30.4883 26.7154 30.5255 26.5388 30.5545C26.3661 30.5834 26.1837 30.602 25.9918 30.6103C25.7999 30.6186 25.5561 30.6227 25.2605 30.6227Z" fill="#9FE870"/>
<path d="M31.2147 30.815C31.0957 30.815 30.9537 30.8171 30.7887 30.8212C30.6274 30.8254 30.5046 30.8274 30.4201 30.8274C30.3357 30.8274 30.2359 30.8254 30.1207 30.8212C30.0056 30.8212 29.9192 30.815 29.8616 30.8026C29.804 30.7902 29.7388 30.7716 29.6658 30.7468C29.5968 30.722 29.5449 30.6889 29.5104 30.6475C29.4797 30.6062 29.447 30.5545 29.4125 30.4924C29.3779 30.4304 29.353 30.358 29.3376 30.2753C29.3261 30.1884 29.3184 30.0892 29.3146 29.9775C29.2954 29.3902 29.2762 28.534 29.257 27.409C29.2378 26.2839 29.2225 25.4877 29.211 25.0204C29.2071 24.8591 29.2033 24.6936 29.1995 24.524C29.1995 24.3503 29.1995 24.2407 29.1995 24.1952C29.1995 24.1456 29.1918 24.0856 29.1764 24.0153C29.1649 23.9409 29.1457 23.8871 29.1188 23.854C29.0958 23.8209 29.0555 23.7692 28.9979 23.6989C28.8597 23.5334 28.7772 23.3763 28.7503 23.2274C28.7235 23.0785 28.735 22.8799 28.7849 22.6318C28.8386 22.3257 28.9288 22.1024 29.0555 21.9617C29.1822 21.817 29.4029 21.7136 29.7177 21.6515C30.0324 21.5853 30.5123 21.5523 31.1572 21.5523C31.66 21.5523 32.042 21.5791 32.303 21.6329C32.564 21.6867 32.7444 21.7735 32.8443 21.8935C32.9441 22.0134 32.994 22.1871 32.994 22.4146C32.994 22.7786 32.9517 23.0475 32.8673 23.2212C32.7828 23.3908 32.637 23.5583 32.4297 23.7237C32.2531 23.8561 32.1418 23.976 32.0957 24.0835C32.0497 24.1869 32.0228 24.3731 32.0151 24.6419C31.9729 26.5611 31.946 27.624 31.9345 27.8308C31.9268 28.1369 31.9326 28.3168 31.9518 28.3706C31.9748 28.4244 32.017 28.4513 32.0784 28.4513C32.1552 28.4513 32.2224 28.4306 32.28 28.3892C32.3414 28.3479 32.3836 28.3127 32.4066 28.2837C32.4297 28.2507 32.4681 28.1783 32.5218 28.0666C32.5794 27.9508 32.6159 27.8805 32.6312 27.8557C33.3375 26.5032 33.896 25.3719 34.3068 24.462C34.3759 24.2924 34.4239 24.1601 34.4507 24.0649C34.4776 23.9657 34.4834 23.8726 34.468 23.7857C34.4565 23.6989 34.4181 23.6203 34.3528 23.55C34.207 23.3928 34.111 23.2584 34.0649 23.1467C34.0189 23.0309 34.017 22.8717 34.0592 22.669C34.0937 22.5036 34.1283 22.3733 34.1628 22.2781C34.2012 22.183 34.2607 22.0837 34.3413 21.9803C34.4258 21.8769 34.5313 21.8004 34.658 21.7508C34.7847 21.7012 34.9536 21.6598 35.1647 21.6267C35.3797 21.5936 35.6388 21.5771 35.942 21.5771C36.4142 21.5771 36.7674 21.6205 37.0015 21.7074C37.2357 21.7901 37.3758 21.9162 37.4218 22.0858C37.4679 22.2554 37.466 22.4663 37.4161 22.7186C37.3892 22.851 37.3585 22.9627 37.324 23.0537C37.2894 23.1405 37.2434 23.217 37.1858 23.2832C37.132 23.3494 37.0821 23.4032 37.0361 23.4445C36.99 23.4817 36.9209 23.5334 36.8288 23.5996C36.7405 23.6617 36.6656 23.7196 36.6042 23.7733C36.4468 23.9098 36.2952 24.0856 36.1493 24.3007C36.0035 24.5116 35.8288 24.8115 35.6254 25.2003C35.3989 25.6429 35.1302 26.164 34.8192 26.7637C34.5121 27.3593 34.278 27.8122 34.1168 28.1224C33.9555 28.4326 33.7924 28.7553 33.6273 29.0903C33.4623 29.4253 33.3337 29.6962 33.2416 29.903C33.0611 30.3539 32.8942 30.6186 32.7406 30.6972C32.5871 30.7799 32.2262 30.8192 31.6581 30.815C31.4739 30.815 31.3261 30.815 31.2147 30.815Z" fill="#9FE870"/>
<path d="M36.9098 30.6847C36.4377 30.6889 36.1306 30.6082 35.9886 30.4428C35.8465 30.2773 35.8082 29.9692 35.8734 29.5184C35.908 29.2992 35.9809 29.1172 36.0922 28.9724C36.2035 28.8276 36.3705 28.7015 36.5932 28.594C36.7928 28.4988 36.9482 28.3706 37.0596 28.2093C37.1709 28.048 37.2899 27.7399 37.4165 27.2849C37.7467 26.1185 37.952 25.2148 38.0327 24.5737C38.0634 24.3296 38.0576 24.1373 38.0154 23.9967C37.977 23.8561 37.8849 23.7237 37.739 23.5996C37.5509 23.4383 37.4338 23.3225 37.3878 23.2522C37.2956 23.1116 37.2668 22.9048 37.3014 22.6318C37.3475 22.2306 37.4799 21.9555 37.6987 21.8066C37.9175 21.6536 38.2764 21.5771 38.7754 21.5771C39.0249 21.5771 39.4933 21.5916 40.1804 21.6205C40.8675 21.6453 41.355 21.6557 41.6429 21.6515C41.9999 21.6474 42.401 21.6391 42.8463 21.6267C43.2954 21.6102 43.5776 21.6102 43.6927 21.6267C44.0574 21.6391 44.3012 21.7239 44.424 21.8811C44.5507 22.0382 44.6601 22.3774 44.7522 22.8986C44.7983 23.1509 44.8309 23.3494 44.8501 23.4942C44.8731 23.6389 44.8885 23.7899 44.8962 23.9471C44.9038 24.1042 44.8962 24.2242 44.8731 24.3069C44.8501 24.3896 44.8117 24.4723 44.758 24.5551C44.7081 24.6336 44.6371 24.6936 44.5449 24.735C44.4528 24.7763 44.3376 24.8115 44.1995 24.8405C44.0421 24.8735 43.9077 24.8901 43.7964 24.8901C43.6851 24.8901 43.5891 24.8797 43.5085 24.8591C43.4279 24.8342 43.3492 24.7846 43.2724 24.7102C43.1956 24.6316 43.1285 24.5509 43.0709 24.4682C43.0171 24.3855 42.9442 24.2655 42.8521 24.1084C42.687 23.8312 42.5181 23.6575 42.3454 23.5872C42.1765 23.5169 41.8598 23.4817 41.3953 23.4817C41.0652 23.4817 40.8387 23.5272 40.7159 23.6182C40.5969 23.7092 40.5009 23.8974 40.428 24.1828C40.4088 24.249 40.3762 24.3565 40.3301 24.5054C40.2879 24.6502 40.2552 24.7681 40.2322 24.8591C40.213 24.9459 40.2034 25.0162 40.2034 25.07C40.1996 25.1734 40.2284 25.2458 40.2898 25.2871C40.3512 25.3285 40.4587 25.3533 40.6122 25.3616C40.6621 25.3616 40.7063 25.3595 40.7447 25.3554C40.783 25.3513 40.8157 25.3471 40.8425 25.343C40.8694 25.3347 40.8944 25.3202 40.9174 25.2996C40.9443 25.2789 40.9635 25.2644 40.975 25.2561C40.9903 25.2437 41.0076 25.2189 41.0268 25.1817C41.046 25.1403 41.0594 25.1114 41.0671 25.0948C41.0748 25.0783 41.0882 25.0431 41.1074 24.9894C41.1304 24.9314 41.1477 24.8901 41.1592 24.8653C41.2207 24.7205 41.2878 24.615 41.3608 24.5489C41.4375 24.4827 41.5623 24.4496 41.735 24.4496C41.8771 24.4496 41.998 24.4744 42.0978 24.524C42.2014 24.5737 42.2801 24.6461 42.3339 24.7412C42.3876 24.8322 42.4279 24.9252 42.4548 25.0204C42.4817 25.1155 42.5008 25.2292 42.5124 25.3616C42.5431 25.6387 42.545 25.9096 42.5181 26.1743C42.4913 26.4391 42.4433 26.6748 42.3742 26.8816C42.3051 27.0843 42.1861 27.2477 42.0172 27.3717C41.8521 27.4917 41.6448 27.5475 41.3953 27.5393C41.2341 27.5351 41.1151 27.4979 41.0383 27.4276C40.9615 27.3531 40.8944 27.2166 40.8368 27.0181C40.7946 26.8692 40.7331 26.7513 40.6525 26.6645C40.5719 26.5735 40.4491 26.5259 40.284 26.5218C40.1957 26.5176 40.119 26.5218 40.0537 26.5342C39.9923 26.5425 39.9366 26.5693 39.8867 26.6148C39.8368 26.6562 39.7965 26.6976 39.7658 26.7389C39.7389 26.7761 39.7082 26.8485 39.6737 26.9561C39.6391 27.0595 39.6123 27.1525 39.5931 27.2352C39.5739 27.318 39.5451 27.4483 39.5067 27.6261C39.4184 28.0439 39.4299 28.3251 39.5412 28.4699C39.6526 28.6105 39.9232 28.6808 40.3531 28.6808C40.9097 28.6808 41.3185 28.625 41.5796 28.5133C41.8406 28.3975 42.0882 28.1617 42.3224 27.806C42.3492 27.7647 42.3818 27.7109 42.4202 27.6447C42.4625 27.5744 42.4913 27.5289 42.5066 27.5082C42.5258 27.4834 42.5508 27.4503 42.5815 27.409C42.616 27.3676 42.6448 27.3407 42.6678 27.3283C42.6909 27.3159 42.7235 27.3014 42.7657 27.2849C42.8079 27.2683 42.8521 27.2601 42.8981 27.2601C42.9481 27.2559 43.0075 27.2559 43.0766 27.2601C43.307 27.2725 43.4912 27.3097 43.6294 27.3717C43.7676 27.4338 43.8712 27.531 43.9403 27.6633C44.0133 27.7957 44.0325 27.9777 43.9979 28.2093C43.9672 28.4368 43.8847 28.7201 43.7503 29.0593C43.7119 29.1585 43.664 29.2847 43.6064 29.4377C43.5488 29.5866 43.5066 29.6962 43.4797 29.7665C43.4528 29.8327 43.4164 29.9175 43.3703 30.0209C43.3281 30.1202 43.2897 30.1905 43.2551 30.2318C43.2206 30.2691 43.1765 30.3166 43.1227 30.3745C43.069 30.4283 43.0114 30.4655 42.95 30.4862C42.8886 30.5069 42.8175 30.5255 42.7369 30.5421C42.6563 30.5545 42.5623 30.5607 42.4548 30.5607C42.0249 30.5607 41.5681 30.5586 41.0844 30.5545C40.6007 30.5503 40.236 30.5483 39.9904 30.5483C39.8253 30.5483 39.3954 30.5669 38.7006 30.6041C38.0058 30.6455 37.4089 30.6723 36.9098 30.6847Z" fill="#9FE870"/>
<path d="M25.036 40.9086C24.798 40.9086 24.5964 40.9065 24.4314 40.9024C24.2702 40.8982 24.107 40.89 23.942 40.8776C23.7807 40.8651 23.6483 40.8486 23.5447 40.8279C23.4448 40.8031 23.3489 40.7721 23.2568 40.7349C23.1646 40.6935 23.0955 40.6459 23.0495 40.5922C23.0034 40.5384 22.9669 40.4743 22.9401 40.3998C22.9094 40.3212 22.8959 40.2323 22.8998 40.1331C22.8998 40.0338 22.9113 39.92 22.9343 39.7918C22.9727 39.5768 23.0418 39.3927 23.1416 39.2397C23.2414 39.0866 23.4007 38.9563 23.6195 38.8488C23.8345 38.7413 24.0053 38.5986 24.132 38.4207C24.2586 38.2429 24.3815 37.9244 24.5005 37.4653C24.7692 36.4395 24.94 35.6309 25.0129 35.0395C25.059 34.692 25.0609 34.4459 25.0187 34.3012C24.9803 34.1523 24.8824 34.022 24.725 33.9103C24.5523 33.7945 24.4352 33.6725 24.3738 33.5443C24.3124 33.416 24.297 33.2113 24.3277 32.9301C24.3584 32.6488 24.4467 32.4358 24.5926 32.291C24.7385 32.1421 24.9765 32.0346 25.3066 31.9684C25.6367 31.9022 26.107 31.8712 26.7173 31.8754C27.5273 31.8836 28.0762 31.9581 28.3641 32.0987C28.652 32.2352 28.7556 32.5123 28.675 32.9301C28.6251 33.2279 28.5522 33.4533 28.4562 33.6063C28.3641 33.7552 28.1933 33.8938 27.9437 34.022C27.7326 34.1419 27.5714 34.2639 27.4601 34.388C27.3526 34.5121 27.2624 34.7044 27.1895 34.965C26.8862 36.1148 26.6712 37.1137 26.5446 37.9616C26.5062 38.2594 26.51 38.4745 26.5561 38.6068C26.6021 38.7392 26.7039 38.8591 26.8612 38.9667C27.176 39.19 27.3104 39.4816 27.2643 39.8415C27.2451 40.0028 27.2163 40.1393 27.1779 40.2509C27.1396 40.3585 27.0801 40.4536 26.9994 40.5363C26.9188 40.619 26.8286 40.6832 26.7288 40.7287C26.629 40.7742 26.4908 40.8114 26.3142 40.8403C26.1415 40.8693 25.9592 40.8879 25.7672 40.8962C25.5753 40.9044 25.3315 40.9086 25.036 40.9086Z" fill="#9FE870"/>
<path d="M31.0132 40.9706C30.733 40.9706 30.4931 40.9665 30.2935 40.9582C30.0939 40.9499 29.9077 40.9355 29.7349 40.9148C29.5622 40.8941 29.4221 40.8651 29.3146 40.8279C29.2071 40.7866 29.1131 40.7369 29.0325 40.679C28.9519 40.6211 28.8962 40.5508 28.8655 40.4681C28.8348 40.3812 28.8175 40.284 28.8137 40.1765C28.8137 40.0648 28.8309 39.9366 28.8655 39.7918C28.9231 39.5354 28.9998 39.3327 29.0958 39.1838C29.1956 39.0349 29.3549 38.9067 29.5737 38.7992C29.7925 38.6999 29.9691 38.5696 30.1035 38.4083C30.2378 38.247 30.3645 37.9761 30.4835 37.5956C30.5641 37.335 30.7004 36.849 30.8923 36.1376C31.0842 35.422 31.2224 34.8906 31.3069 34.5431C31.3645 34.3405 31.3606 34.206 31.2954 34.1399C31.2301 34.0695 31.0727 34.0344 30.8232 34.0344C30.6082 34.0344 30.4547 34.0861 30.3626 34.1895C30.2743 34.2929 30.1725 34.5038 30.0574 34.8223C29.9422 35.1656 29.7887 35.3931 29.5968 35.5048C29.4087 35.6123 29.1534 35.6351 28.8309 35.573C28.5661 35.511 28.3741 35.4014 28.2551 35.2442C28.1361 35.0829 28.0882 34.8657 28.1112 34.5928C28.1342 34.3156 28.2302 33.9786 28.3991 33.5815C28.5488 33.2341 28.6774 32.9569 28.7849 32.7501C28.8924 32.5433 28.9902 32.3717 29.0785 32.2352C29.1707 32.0987 29.2685 32.0015 29.3722 31.9436C29.4797 31.8857 29.5795 31.8485 29.6716 31.8319C29.7676 31.8112 29.9 31.8009 30.0689 31.8009C30.2378 31.8009 30.47 31.8402 30.7656 31.9188C31.0612 31.9932 31.305 32.0305 31.4969 32.0305L34.4795 32.018C34.6561 32.018 34.9056 31.987 35.2281 31.925C35.5543 31.8629 35.7923 31.834 35.942 31.8381C36.1609 31.8505 36.3259 31.9002 36.4372 31.987C36.5486 32.0697 36.6368 32.2186 36.7021 32.4337C36.7712 32.6488 36.8326 32.9838 36.8864 33.4388C36.9746 34.2619 36.9574 34.8471 36.8345 35.1946C36.7117 35.5379 36.4622 35.7488 36.086 35.8274C35.7098 35.906 35.4334 35.8687 35.2568 35.7157C35.0841 35.5627 34.9747 35.269 34.9286 34.8347C34.8903 34.4873 34.8461 34.2701 34.7962 34.1833C34.7463 34.0923 34.6254 34.0468 34.4335 34.0468C34.1648 34.0468 33.9882 34.0902 33.9037 34.1771C33.8231 34.2598 33.7291 34.4873 33.6216 34.8595C33.2684 36.0921 32.9882 37.1551 32.7809 38.0485C32.7195 38.3173 32.7041 38.4993 32.7349 38.5944C32.7694 38.6896 32.8634 38.793 33.017 38.9046C33.1897 39.0204 33.3126 39.1445 33.3855 39.2769C33.4623 39.4092 33.4815 39.6057 33.4431 39.8663C33.3932 40.1848 33.2991 40.4184 33.1609 40.5673C33.0228 40.7162 32.7944 40.8196 32.4757 40.8776C32.1571 40.9396 31.6696 40.9706 31.0132 40.9706Z" fill="#9FE870"/>
</svg>
