<svg width="107" height="100" viewBox="0 0 107 100" fill="none" xmlns="http://www.w3.org/2000/svg">
<path d="M44.9755 6.5743C46.8063 -2.19134 59.3422 -2.19152 61.1728 6.5743C62.4453 12.6691 69.7676 15.2118 74.5292 11.2003L76.9472 9.16316C83.3745 3.74913 92.5338 11.2263 88.5575 18.63C85.6511 24.0408 90.0264 30.4961 96.1269 29.7833L98.0019 29.5645C106.159 28.6117 109.407 39.7874 102.01 43.3546C96.5177 46.0024 96.5177 53.8239 102.01 56.4718C109.407 60.0387 106.159 71.2157 98.0019 70.2628L96.1269 70.043C90.0265 69.3303 85.6514 75.7856 88.5575 81.1964C92.5347 88.6004 83.3747 96.0782 76.9472 90.6632L74.5292 88.6261C69.7678 84.615 62.4456 87.1578 61.1728 93.252C59.3425 102.018 46.8058 102.018 44.9755 93.252C43.7028 87.1577 36.3796 84.6152 31.6181 88.6261L29.2001 90.6632C22.7726 96.0781 13.6136 88.6004 17.5907 81.1964C20.4962 75.7858 16.1205 69.3305 10.0204 70.043L8.14543 70.2628C-0.0121392 71.216 -3.25957 60.0386 4.13859 56.4718C9.62971 53.8236 9.63 46.0024 4.13859 43.3546C-3.25958 39.7878 -0.0121573 28.6112 8.14543 29.5645L10.0204 29.7833C16.1208 30.4959 20.4971 24.0407 17.5907 18.63C13.6137 11.2261 22.7726 3.74871 29.2001 9.16316L31.6181 11.2003C36.3797 15.2118 43.703 12.6691 44.9755 6.5743ZM17.0732 51.3682C16.2448 51.3682 15.5733 51.9639 15.5732 52.6993C15.5732 53.4348 16.2447 54.0313 17.0732 54.0313C17.9015 54.0313 18.5732 53.4348 18.5732 52.6993C18.573 51.9639 17.9014 51.3683 17.0732 51.3682ZM88.0741 51.3673C87.2458 51.3673 86.5743 51.9639 86.5741 52.6993C86.5741 53.4348 87.2457 54.0313 88.0741 54.0313C88.9022 54.031 89.5741 53.4346 89.5741 52.6993C89.5739 51.9641 88.9021 51.3676 88.0741 51.3673ZM17.0732 43.254C16.2448 43.254 15.5733 43.8506 15.5732 44.586C15.5732 45.3216 16.2447 45.918 17.0732 45.918C17.9015 45.918 18.5732 45.3215 18.5732 44.586C18.573 43.8506 17.9014 43.2541 17.0732 43.254ZM88.0741 43.254C87.2458 43.254 86.5743 43.8506 86.5741 44.586C86.5741 45.3216 87.2457 45.918 88.0741 45.918C88.9022 45.9177 89.5741 45.3214 89.5741 44.586C89.5739 43.8508 88.9021 43.2543 88.0741 43.254Z" fill="#163300"/>
<path d="M32.8824 51.663C31.7818 51.6288 30.8248 51.3349 30.0113 50.7812C29.1979 50.2206 28.5895 49.4755 28.1861 48.5458C27.7896 47.6161 27.6187 46.5771 27.6734 45.4286C27.7145 44.5058 27.8717 43.6 28.1451 42.7114C28.4254 41.8227 28.8185 40.9955 29.3243 40.2299C29.837 39.4575 30.4317 38.7841 31.1085 38.2099C31.7921 37.6288 32.5851 37.1811 33.4874 36.8666C34.3966 36.5522 35.357 36.412 36.3687 36.4462C37.025 36.4736 37.5309 36.5488 37.8863 36.6718C38.2418 36.7949 38.6178 36.9999 39.0143 37.287C39.11 37.3554 39.2193 37.4511 39.3424 37.5742C39.4723 37.6972 39.5782 37.7861 39.6603 37.8408C39.7491 37.8954 39.8448 37.9262 39.9474 37.933C40.0636 37.9399 40.1627 37.9057 40.2447 37.8305C40.3268 37.7485 40.3951 37.6528 40.4498 37.5434C40.5045 37.4272 40.566 37.311 40.6344 37.1948C40.7027 37.0786 40.8053 36.9828 40.942 36.9077C41.0855 36.8325 41.2564 36.8017 41.4547 36.8154C41.5709 36.8222 41.6734 36.8393 41.7623 36.8666C41.8512 36.8871 41.9264 36.9111 41.9879 36.9384C42.0562 36.9658 42.1178 37.017 42.1725 37.0922C42.234 37.1674 42.2818 37.2324 42.316 37.287C42.3502 37.3417 42.3912 37.4409 42.4391 37.5844C42.4869 37.7211 42.5211 37.8339 42.5416 37.9228C42.5689 38.0048 42.61 38.1518 42.6646 38.3637C42.7262 38.5688 42.7774 38.7397 42.8185 38.8764C42.9757 39.4233 43.0611 39.9018 43.0748 40.312C43.0885 40.7153 43.027 41.0536 42.8902 41.3271C42.7535 41.6005 42.5587 41.8193 42.3058 41.9833C42.0597 42.1474 41.7418 42.2739 41.3521 42.3627C41.1197 42.4174 40.9078 42.4482 40.7164 42.455C40.5318 42.4619 40.3541 42.4448 40.1832 42.4037C40.0191 42.3627 39.8653 42.3046 39.7218 42.2294C39.5851 42.1542 39.4449 42.0517 39.3014 41.9218C39.1578 41.7851 39.0211 41.6415 38.8912 41.4911C38.7682 41.3408 38.628 41.1562 38.4708 40.9374C37.9786 40.2402 37.336 39.8745 36.5431 39.8403C35.8458 39.8061 35.1998 40.0248 34.6051 40.4965C34.0104 40.9614 33.5353 41.5903 33.1798 42.3832C32.8312 43.1762 32.6363 44.0375 32.5953 44.9672C32.5543 45.808 32.7115 46.4814 33.067 46.9872C33.4225 47.4931 33.9728 47.7597 34.7179 47.787C35.8185 47.8144 36.4747 47.4965 36.6866 46.8334C36.7618 46.601 36.7721 46.4438 36.7174 46.3618C36.6695 46.2729 36.5533 46.2216 36.3687 46.2079C35.9586 46.1806 35.6988 46.1191 35.5895 46.0234C35.4801 45.9277 35.4322 45.7568 35.4459 45.5107C35.5074 44.1777 36.4166 43.5419 38.1734 43.6035C38.734 43.624 39.3834 43.6376 40.1217 43.6445C40.8668 43.6445 41.3795 43.6513 41.6598 43.665C41.899 43.6718 42.087 43.706 42.2237 43.7675C42.3673 43.829 42.4664 43.9042 42.5211 43.9931C42.5826 44.0751 42.6031 44.2016 42.5826 44.3725C42.5621 44.5366 42.5279 44.6972 42.4801 44.8544C42.4322 45.0048 42.357 45.2099 42.2545 45.4697C42.1861 45.6406 42.1212 45.7875 42.0597 45.9106C41.9981 46.0336 41.9469 46.1328 41.9059 46.2079C41.8648 46.2831 41.8067 46.3583 41.7315 46.4335C41.6563 46.5019 41.6017 46.5497 41.5675 46.5771C41.5333 46.6044 41.4684 46.6523 41.3727 46.7206C41.277 46.789 41.2052 46.8403 41.1573 46.8745C40.9591 47.0043 40.8155 47.1684 40.7267 47.3666C40.6378 47.5649 40.566 47.8349 40.5113 48.1767C40.4361 48.5937 40.3438 49.226 40.2345 50.0737C40.1456 50.6889 39.9645 51.1196 39.691 51.3657C39.4244 51.6118 38.963 51.7109 38.3067 51.663C37.7394 51.622 37.4796 51.352 37.5274 50.853C37.5343 50.7299 37.5445 50.5932 37.5582 50.4428C37.5787 50.2924 37.5924 50.1796 37.5992 50.1044C37.6061 50.0224 37.6061 49.9404 37.5992 49.8583C37.5992 49.7763 37.5821 49.7216 37.5479 49.6943C37.5206 49.6601 37.4796 49.6396 37.4249 49.6328C37.3224 49.6259 37.2232 49.6635 37.1275 49.7455C37.0318 49.8276 36.837 50.0497 36.5431 50.412C36.1466 50.9179 35.6544 51.2631 35.0665 51.4477C34.4786 51.6254 33.7506 51.6972 32.8824 51.663ZM44.9726 51.6015C44.5488 51.6015 44.1899 51.5981 43.8959 51.5912C43.6088 51.5844 43.3183 51.5707 43.0244 51.5502C42.7372 51.5297 42.5014 51.5024 42.3168 51.4682C42.1391 51.4272 41.9682 51.3759 41.8041 51.3144C41.6401 51.246 41.517 51.1674 41.435 51.0786C41.353 50.9897 41.288 50.8837 41.2402 50.7607C41.1855 50.6308 41.1616 50.4838 41.1684 50.3198C41.1684 50.1557 41.1889 49.9677 41.2299 49.7558C41.2983 49.4003 41.4213 49.0961 41.5991 48.8432C41.7768 48.5903 42.0605 48.3749 42.4501 48.1972C42.8329 48.0195 43.1371 47.7836 43.3627 47.4897C43.5883 47.1957 43.8071 46.6694 44.019 45.9106C44.4975 44.2153 44.8017 42.8788 44.9316 41.9013C45.0136 41.3271 45.017 40.9203 44.9418 40.6811C44.8735 40.435 44.6992 40.2197 44.4189 40.0351C44.1113 39.8437 43.9028 39.642 43.7934 39.4301C43.684 39.2182 43.6567 38.8798 43.7114 38.415C43.7661 37.9501 43.9233 37.5981 44.183 37.3588C44.4428 37.1127 44.8666 36.935 45.4545 36.8256C46.0424 36.7162 46.8798 36.665 47.9667 36.6718C49.4091 36.6855 50.3867 36.8085 50.8994 37.041C51.4121 37.2665 51.5966 37.7245 51.4531 38.415C51.3642 38.9072 51.2343 39.2797 51.0634 39.5327C50.8994 39.7787 50.5952 40.0078 50.1508 40.2197C49.7748 40.4179 49.4877 40.6196 49.2895 40.8246C49.0981 41.0297 48.9374 41.3476 48.8076 41.7783C48.2675 43.6786 47.8847 45.3295 47.6591 46.7309C47.5908 47.2231 47.5976 47.5786 47.6796 47.7973C47.7617 48.0161 47.9428 48.2143 48.2231 48.392C48.7836 48.7612 49.0229 49.2431 48.9409 49.8378C48.9067 50.1044 48.8554 50.33 48.7871 50.5146C48.7187 50.6923 48.6127 50.8495 48.4692 50.9863C48.3256 51.123 48.165 51.2289 47.9872 51.3041C47.8095 51.3793 47.5634 51.4409 47.249 51.4887C46.9413 51.5366 46.6166 51.5673 46.2748 51.581C45.933 51.5947 45.499 51.6015 44.9726 51.6015ZM55.576 51.9194C55.364 51.9194 55.1111 51.9228 54.8172 51.9296C54.5301 51.9365 54.3113 51.9399 54.1609 51.9399C54.0105 51.9399 53.8328 51.9365 53.6277 51.9296C53.4226 51.9296 53.2688 51.9194 53.1663 51.8989C53.0637 51.8784 52.9475 51.8476 52.8177 51.8066C52.6946 51.7656 52.6023 51.7109 52.5408 51.6425C52.4861 51.5742 52.428 51.4887 52.3665 51.3862C52.305 51.2836 52.2605 51.164 52.2332 51.0273C52.2127 50.8837 52.199 50.7197 52.1922 50.5351C52.158 49.5644 52.1238 48.1494 52.0896 46.29C52.0554 44.4306 52.0281 43.1147 52.0076 42.3422C52.0008 42.0756 51.9939 41.8022 51.9871 41.5219C51.9871 41.2348 51.9871 41.0536 51.9871 40.9785C51.9871 40.8964 51.9734 40.7973 51.9461 40.6811C51.9256 40.558 51.8914 40.4692 51.8435 40.4145C51.8025 40.3598 51.7307 40.2744 51.6282 40.1581C51.3821 39.8847 51.2351 39.6249 51.1873 39.3788C51.1394 39.1328 51.1599 38.8046 51.2488 38.3945C51.3445 37.8886 51.5052 37.5195 51.7307 37.287C51.9563 37.0478 52.3494 36.8769 52.9099 36.7744C53.4705 36.665 54.325 36.6103 55.4734 36.6103C56.3689 36.6103 57.0491 36.6547 57.5139 36.7436C57.9788 36.8325 58.3001 36.976 58.4778 37.1743C58.6555 37.3725 58.7444 37.6596 58.7444 38.0356C58.7444 38.6371 58.6692 39.0815 58.5188 39.3686C58.3684 39.6489 58.1087 39.9257 57.7395 40.1992C57.4251 40.4179 57.2268 40.6161 57.1448 40.7939C57.0628 40.9648 57.0149 41.2724 57.0012 41.7167C56.9261 44.8886 56.8782 46.6454 56.8577 46.9872C56.844 47.4931 56.8543 47.7905 56.8885 47.8793C56.9295 47.9682 57.0047 48.0126 57.114 48.0126C57.2508 48.0126 57.3704 47.9785 57.4729 47.9101C57.5823 47.8417 57.6575 47.7836 57.6985 47.7358C57.7395 47.6811 57.8079 47.5615 57.9036 47.3769C58.0061 47.1855 58.0711 47.0693 58.0984 47.0283C59.3562 44.7929 60.3509 42.9233 61.0823 41.4194C61.2054 41.1391 61.2908 40.9203 61.3387 40.7631C61.3865 40.5991 61.3968 40.4453 61.3694 40.3017C61.3489 40.1581 61.2805 40.0283 61.1643 39.912C60.9046 39.6523 60.7337 39.4301 60.6516 39.2455C60.5696 39.0541 60.5662 38.791 60.6414 38.456C60.7029 38.1826 60.7644 37.9672 60.826 37.81C60.8943 37.6528 61.0003 37.4887 61.1438 37.3178C61.2942 37.1469 61.4822 37.0204 61.7078 36.9384C61.9334 36.8564 62.2342 36.788 62.6101 36.7333C62.9929 36.6786 63.4544 36.6513 63.9944 36.6513C64.8352 36.6513 65.4641 36.7231 65.8811 36.8666C66.2981 37.0034 66.5476 37.2119 66.6297 37.4921C66.7117 37.7724 66.7083 38.121 66.6194 38.538C66.5716 38.7568 66.5169 38.9413 66.4554 39.0917C66.3938 39.2353 66.3118 39.3618 66.2093 39.4711C66.1136 39.5805 66.0247 39.6694 65.9427 39.7377C65.8606 39.7993 65.7376 39.8847 65.5735 39.9941C65.4163 40.0966 65.283 40.1923 65.1736 40.2812C64.8933 40.5068 64.6233 40.7973 64.3636 41.1528C64.1038 41.5014 63.7928 41.997 63.4304 42.6396C63.0271 43.371 62.5486 44.2324 61.9949 45.2236C61.448 46.2079 61.031 46.9565 60.7439 47.4692C60.4568 47.9819 60.1663 48.5151 59.8723 49.0688C59.5784 49.6225 59.3494 50.0703 59.1853 50.412C58.864 51.1572 58.5667 51.5947 58.2932 51.7245C58.0198 51.8613 57.3772 51.9262 56.3655 51.9194C56.0374 51.9194 55.7742 51.9194 55.576 51.9194ZM65.7179 51.704C64.8771 51.7109 64.3302 51.5776 64.0773 51.3041C63.8243 51.0307 63.756 50.5214 63.8722 49.7763C63.9337 49.414 64.0636 49.1132 64.2618 48.874C64.4601 48.6347 64.7574 48.4262 65.1539 48.2485C65.5094 48.0912 65.7862 47.8793 65.9845 47.6127C66.1827 47.3461 66.3946 46.8369 66.6202 46.0849C67.2081 44.1572 67.5738 42.6635 67.7174 41.6039C67.7721 41.2006 67.7618 40.8828 67.6866 40.6503C67.6183 40.4179 67.4542 40.1992 67.1945 39.9941C66.8595 39.7275 66.651 39.5361 66.569 39.4199C66.4049 39.1874 66.3536 38.8456 66.4152 38.3945C66.4972 37.7314 66.733 37.2768 67.1227 37.0307C67.5123 36.7778 68.1515 36.6513 69.0402 36.6513C69.4845 36.6513 70.3185 36.6752 71.5421 36.7231C72.7657 36.7641 73.6339 36.7812 74.1466 36.7744C74.7823 36.7675 75.4967 36.7538 76.2897 36.7333C77.0895 36.706 77.5919 36.706 77.797 36.7333C78.4464 36.7538 78.8805 36.894 79.0992 37.1537C79.3248 37.4135 79.5196 37.9741 79.6837 38.8354C79.7657 39.2524 79.8238 39.5805 79.858 39.8198C79.899 40.059 79.9264 40.3085 79.9401 40.5683C79.9537 40.8281 79.9401 41.0263 79.899 41.163C79.858 41.2997 79.7897 41.4365 79.694 41.5732C79.6051 41.7031 79.4786 41.8022 79.3146 41.8705C79.1505 41.9389 78.9454 41.997 78.6993 42.0449C78.4191 42.0995 78.1798 42.1269 77.9816 42.1269C77.7833 42.1269 77.6124 42.1098 77.4689 42.0756C77.3253 42.0346 77.1852 41.9526 77.0485 41.8295C76.9117 41.6996 76.7921 41.5663 76.6896 41.4296C76.5939 41.2929 76.464 41.0947 76.2999 40.8349C76.006 40.3769 75.7052 40.0898 75.3976 39.9736C75.0968 39.8574 74.5328 39.7993 73.7057 39.7993C73.1178 39.7993 72.7145 39.8745 72.4957 40.0248C72.2838 40.1752 72.1129 40.4863 71.983 40.9579C71.9488 41.0673 71.8907 41.2451 71.8087 41.4911C71.7335 41.7304 71.6754 41.9252 71.6344 42.0756C71.6002 42.2192 71.5831 42.3354 71.5831 42.4243C71.5763 42.5952 71.6276 42.7148 71.7369 42.7831C71.8463 42.8515 72.0377 42.8925 72.3111 42.9062C72.4 42.9062 72.4786 42.9028 72.547 42.8959C72.6153 42.8891 72.6735 42.8823 72.7213 42.8754C72.7692 42.8618 72.8136 42.8378 72.8546 42.8036C72.9025 42.7695 72.9366 42.7455 72.9571 42.7319C72.9845 42.7114 73.0153 42.6703 73.0494 42.6088C73.0836 42.5405 73.1075 42.4926 73.1212 42.4653C73.1349 42.4379 73.1588 42.3798 73.193 42.291C73.234 42.1953 73.2648 42.1269 73.2853 42.0859C73.3946 41.8466 73.5143 41.6723 73.6442 41.5629C73.7809 41.4536 74.003 41.3989 74.3107 41.3989C74.5636 41.3989 74.7789 41.4399 74.9567 41.5219C75.1412 41.6039 75.2814 41.7236 75.3771 41.8808C75.4728 42.0312 75.5445 42.185 75.5924 42.3422C75.6403 42.4995 75.6744 42.6874 75.6949 42.9062C75.7496 43.3642 75.753 43.812 75.7052 44.2495C75.6573 44.687 75.5719 45.0766 75.4488 45.4184C75.3258 45.7534 75.1139 46.0234 74.8131 46.2285C74.5192 46.4267 74.15 46.519 73.7057 46.5053C73.4186 46.4985 73.2067 46.437 73.0699 46.3207C72.9332 46.1977 72.8136 45.9721 72.7111 45.644C72.6359 45.3979 72.5265 45.2031 72.3829 45.0595C72.2394 44.9091 72.0206 44.8305 71.7267 44.8237C71.5695 44.8168 71.4327 44.8237 71.3165 44.8442C71.2071 44.8578 71.108 44.9023 71.0192 44.9775C70.9303 45.0458 70.8585 45.1142 70.8038 45.1826C70.756 45.2441 70.7013 45.3637 70.6398 45.5414C70.5782 45.7123 70.5304 45.8661 70.4962 46.0029C70.462 46.1396 70.4108 46.3549 70.3424 46.6489C70.1852 47.3393 70.2057 47.8041 70.4039 48.0434C70.6022 48.2758 71.0841 48.392 71.8497 48.392C72.8409 48.392 73.569 48.2997 74.0338 48.1152C74.4986 47.9238 74.9396 47.5341 75.3566 46.9462C75.4044 46.8779 75.4625 46.789 75.5309 46.6796C75.6061 46.5634 75.6573 46.4882 75.6847 46.454C75.7189 46.413 75.7633 46.3583 75.818 46.29C75.8795 46.2216 75.9308 46.1772 75.9718 46.1567C76.0128 46.1362 76.0709 46.1122 76.1461 46.0849C76.2213 46.0576 76.2999 46.0439 76.382 46.0439C76.4708 46.037 76.5768 46.037 76.6998 46.0439C77.11 46.0644 77.4381 46.1259 77.6842 46.2285C77.9303 46.331 78.1149 46.4916 78.2379 46.7104C78.3678 46.9291 78.402 47.2299 78.3404 47.6127C78.2858 47.9887 78.1388 48.457 77.8995 49.0175C77.8312 49.1816 77.7457 49.3901 77.6432 49.643C77.5406 49.8891 77.4654 50.0703 77.4176 50.1865C77.3697 50.2958 77.3048 50.436 77.2228 50.6069C77.1476 50.7709 77.0792 50.8871 77.0177 50.9555C76.9562 51.017 76.8776 51.0956 76.7819 51.1913C76.6861 51.2802 76.5836 51.3417 76.4742 51.3759C76.3649 51.4101 76.2384 51.4409 76.0948 51.4682C75.9513 51.4887 75.7838 51.499 75.5924 51.499C74.8268 51.499 74.0133 51.4955 73.152 51.4887C72.2906 51.4819 71.6412 51.4785 71.2037 51.4785C70.9098 51.4785 70.1442 51.5092 68.9069 51.5707C67.6695 51.6391 66.6066 51.6835 65.7179 51.704ZM44.5727 68.6015C44.1489 68.6015 43.79 68.5981 43.496 68.5912C43.2089 68.5844 42.9184 68.5707 42.6245 68.5502C42.3373 68.5297 42.1015 68.5024 41.9169 68.4682C41.7392 68.4272 41.5683 68.3759 41.4042 68.3144C41.2402 68.246 41.1171 68.1674 41.0351 68.0786C40.9531 67.9897 40.8881 67.8837 40.8403 67.7607C40.7856 67.6308 40.7617 67.4838 40.7685 67.3198C40.7685 67.1557 40.789 66.9677 40.83 66.7558C40.8984 66.4003 41.0214 66.0961 41.1992 65.8432C41.3769 65.5903 41.6606 65.3749 42.0502 65.1972C42.433 65.0195 42.7372 64.7836 42.9628 64.4897C43.1884 64.1957 43.4072 63.6694 43.6191 62.9106C44.0976 61.2153 44.4018 59.8788 44.5317 58.9013C44.6137 58.3271 44.6171 57.9203 44.5419 57.6811C44.4736 57.435 44.2993 57.2197 44.019 57.0351C43.7114 56.8437 43.5029 56.642 43.3935 56.4301C43.2841 56.2182 43.2568 55.8798 43.3115 55.415C43.3662 54.9501 43.5234 54.5981 43.7831 54.3588C44.0429 54.1127 44.4667 53.935 45.0546 53.8256C45.6425 53.7162 46.4799 53.665 47.5668 53.6718C49.0092 53.6855 49.9868 53.8085 50.4995 54.041C51.0121 54.2665 51.1967 54.7245 51.0532 55.415C50.9643 55.9072 50.8344 56.2797 50.6635 56.5327C50.4995 56.7787 50.1953 57.0078 49.7509 57.2197C49.3749 57.4179 49.0878 57.6196 48.8896 57.8246C48.6982 58.0297 48.5375 58.3476 48.4077 58.7783C47.8676 60.6786 47.4848 62.3295 47.2592 63.7309C47.1909 64.2231 47.1977 64.5786 47.2797 64.7973C47.3618 65.0161 47.5429 65.2143 47.8232 65.392C48.3837 65.7612 48.623 66.2431 48.541 66.8378C48.5068 67.1044 48.4555 67.33 48.3871 67.5146C48.3188 67.6923 48.2128 67.8495 48.0693 67.9863C47.9257 68.123 47.7651 68.2289 47.5873 68.3041C47.4096 68.3793 47.1635 68.4409 46.8491 68.4887C46.5414 68.5366 46.2167 68.5673 45.8749 68.581C45.5331 68.5947 45.0991 68.6015 44.5727 68.6015ZM55.2171 68.704C54.718 68.704 54.2908 68.6972 53.9353 68.6835C53.5799 68.6699 53.2483 68.6459 52.9407 68.6118C52.6331 68.5776 52.3836 68.5297 52.1922 68.4682C52.0008 68.3998 51.8333 68.3178 51.6897 68.2221C51.5462 68.1264 51.4471 68.0102 51.3924 67.8735C51.3377 67.7299 51.3069 67.5693 51.3001 67.3915C51.3001 67.207 51.3308 66.9951 51.3924 66.7558C51.4949 66.332 51.6316 65.997 51.8025 65.7509C51.9803 65.5048 52.2639 65.2929 52.6536 65.1152C53.0432 64.9511 53.3577 64.7358 53.597 64.4692C53.8362 64.2026 54.0618 63.7548 54.2737 63.1259C54.4173 62.6953 54.6599 61.892 55.0017 60.7162C55.3435 59.5336 55.5896 58.6552 55.74 58.081C55.8426 57.746 55.8357 57.5239 55.7195 57.4145C55.6033 57.2983 55.323 57.2402 54.8787 57.2402C54.4959 57.2402 54.2224 57.3256 54.0584 57.4965C53.9012 57.6674 53.72 58.0161 53.5149 58.5424C53.3098 59.1098 53.0364 59.4858 52.6946 59.6703C52.3596 59.8481 51.9051 59.8857 51.3308 59.7831C50.8592 59.6806 50.5174 59.4995 50.3054 59.2397C50.0935 58.9731 50.0081 58.6142 50.0491 58.163C50.0901 57.705 50.261 57.1479 50.5618 56.4916C50.8284 55.9174 51.0574 55.4594 51.2488 55.1176C51.4402 54.7758 51.6145 54.4921 51.7718 54.2665C51.9358 54.041 52.1101 53.8803 52.2947 53.7846C52.4861 53.6889 52.6638 53.6274 52.8279 53.6C52.9988 53.5659 53.2346 53.5488 53.5354 53.5488C53.8362 53.5488 54.2498 53.6137 54.7762 53.7436C55.3025 53.8666 55.7366 53.9282 56.0784 53.9282L61.3899 53.9077C61.7044 53.9077 62.1487 53.8564 62.7229 53.7538C63.304 53.6513 63.7278 53.6035 63.9944 53.6103C64.3841 53.6308 64.678 53.7128 64.8762 53.8564C65.0745 53.9931 65.2317 54.2392 65.3479 54.5947C65.471 54.9501 65.5804 55.5038 65.6761 56.2558C65.8333 57.6161 65.8025 58.5834 65.5838 59.1577C65.365 59.725 64.9207 60.0737 64.2508 60.2036C63.5808 60.3334 63.0887 60.2719 62.7742 60.019C62.4666 59.7661 62.2718 59.2807 62.1897 58.5629C62.1214 57.9887 62.0428 57.6298 61.9539 57.4863C61.865 57.3359 61.6497 57.2607 61.3079 57.2607C60.8294 57.2607 60.5149 57.3325 60.3645 57.476C60.221 57.6127 60.0535 57.9887 59.8621 58.6039C59.2332 60.6411 58.7342 62.3979 58.365 63.8745C58.2556 64.3188 58.2283 64.6196 58.283 64.7768C58.3445 64.934 58.512 65.1049 58.7854 65.2895C59.093 65.4809 59.3118 65.686 59.4417 65.9047C59.5784 66.1235 59.6126 66.4482 59.5442 66.8788C59.4554 67.4052 59.2879 67.7914 59.0418 68.0375C58.7957 68.2836 58.3889 68.4545 57.8216 68.5502C57.2542 68.6528 56.386 68.704 55.2171 68.704Z" fill="#9FE870"/>
</svg>
